<svg version="1.2" xmlns="http://www.w3.org/2000/svg" viewBox="0 0 500 500" width="500" height="500"><style>.a{fill:#e8eff6}.b{fill:#6eb2ec}</style><path class="a" d="m-262 250v512h1024v-1024h-1024z"/><path class="b" d="m391.5 86.1c-8.8 0.4-21.9 1.5-29 2.4-7.1 0.9-18.4 2.8-25 4.2-6.6 1.4-17.4 4.3-24 6.4-6.6 2.2-17.9 6.8-25 10.3-7.4 3.6-16.8 9.3-21.8 13l-8.7 6.6c-0.2 112.8-0.3 174.4-0.4 209.7-0.1 56.9 0.1 64 1.4 62.9 0.8-0.7 4-3.3 7-5.7 3-2.5 9.3-6.7 14-9.5 4.7-2.7 12.3-6.7 17-8.8 4.7-2.1 14.4-5.8 21.5-8.1 7.1-2.4 18.9-5.5 26-6.9 7.1-1.5 20-3.5 28.5-4.5 8.5-1.1 20.5-2.3 26.5-2.7 10.3-0.7 11.2-0.9 13.8-3.5l2.7-2.9c0-168.6-0.3-227.4-0.8-239.4l-0.7-21.9c-5-2.1-6.6-2.6-6.8-2.5-0.1 0-7.4 0.4-16.2 0.9zm-304.9 0.9c-1.9 1.1-1.9 3.9-1.8 132.5l0.2 131.5c3.8 3.3 6.5 4.1 10.5 4.5 3.3 0.2 10.5 0.7 16 1 5.5 0.3 16.3 1.5 24 2.6 7.7 1.1 19.2 3.1 25.5 4.6 6.3 1.4 16.7 4.3 23 6.5 6.3 2.2 16 6.1 21.5 8.7 5.5 2.6 14 7.3 19 10.3 4.9 3.1 11.1 7.5 13.7 9.7l4.8 4.1v-273c-8.1-6.8-13.4-10.6-17-12.8-3.6-2.2-11.5-6.4-17.5-9.3-6.1-2.8-16.9-7.1-24-9.4-7.2-2.4-17.7-5.3-23.5-6.4-5.8-1.2-15.5-2.8-21.5-3.6-6.1-0.8-20-1.8-31-2.1-13.7-0.3-20.6-0.2-21.9 0.6zm-27.1 35.8c-3.3 1.6-7.6 4.2-9.5 5.9-1.9 1.6-4.3 4.6-5.3 6.6-1.6 3.5-1.7 11.8-1.7 130.2 0 103.9 0.2 127.1 1.3 129.8 0.8 1.7 2.7 4.7 4.3 6.6 1.6 1.8 4.7 4.3 6.9 5.5 4 2.1 4.9 2.1 87.5 2.6l83.5 0.6c13.2 4.1 17.1 5.1 17.2 4.8 0.2-0.2-2.5-2.1-6-4.3-3.4-2.1-8.9-5-12.2-6.3-3.3-1.4-9.6-3.7-14-5.1-4.4-1.4-11.6-3.5-16-4.6-4.4-1.1-11.4-2.4-15.5-3.1-4.1-0.6-13.4-1.7-20.5-2.5-8.9-1-24.2-1.5-48.3-1.5-28.1 0-35.8-0.3-38-1.4-1.5-0.8-3.6-2.4-4.7-3.6-2-2.2-2-4-2.5-132.6l-0.5-130.4zm374.6 127.1c-0.1 122.1-0.2 130.2-1.9 132.7-0.9 1.4-2.6 3.1-3.7 3.8-1.3 0.7-15.7 1.3-43.5 1.7-31.1 0.4-44.5 1-53.5 2.2-6.6 1-17.9 3.1-25 4.7-7.2 1.7-18.2 4.8-24.5 7-6.3 2.2-13.8 5.4-16.5 7-2.8 1.7-6.1 4-7.5 5.1-2 1.7-2.1 1.9-0.5 1.4 1.1-0.4 6-1.6 11-2.8 8.7-2 12-2.1 91-2.7 78.1-0.5 82.2-0.6 85-2.4 1.7-1 4.3-3.1 5.8-4.5 1.6-1.4 3.9-4.4 5-6.6l2.2-4c0.4-204.8 0.2-250.6-0.5-253.5-0.7-3.4-2.2-5.7-5.7-9.1-2.7-2.5-6.6-5.5-8.8-6.6-2.2-1.2-5-2.4-6.2-2.8l-2.1-0.7z"/><path class="a" d="m164.4 147.8c-3.2 2.1-9 6.7-12.8 10.3-3.8 3.5-9.6 10-12.9 14.4-3.3 4.4-8.3 12.9-11.3 19-2.9 6-6.4 15.3-7.8 20.5-1.3 5.2-2.9 14.4-3.5 20.5-0.6 7.5-0.7 14.7 0 22.5 0.6 6.3 2.2 15.8 3.5 21 1.4 5.2 4.5 13.8 7 19 2.5 5.2 6.5 12.4 8.9 16 2.4 3.6 5.4 7.5 6.7 8.8l2.3 2.3 12.4-7.6c-6.3-8.5-9.9-13.9-12-17.5-2.1-3.6-5.4-10.8-7.3-16-1.9-5.2-4.2-14.5-5.1-20.5-1.3-8.2-1.6-14-1.2-22.5 0.4-6.3 1.5-14.9 2.6-19 1-4.1 2.9-10.2 4.2-13.5 1.4-3.3 4.4-9.5 6.9-13.9 2.5-4.3 6.9-10.7 9.7-14.2 2.9-3.5 8.5-9 12.5-12.2 4-3.1 8.7-7.2 10.5-9 2.6-2.5 3.2-3.8 2.7-6-0.3-1.5-1.5-3.5-2.7-4.4-1.2-1-3.4-1.8-4.8-1.8-1.4 0-5.2 1.7-8.5 3.8zm159.9-3.1c-0.7 0.3-2 1.8-2.8 3.4-0.8 1.6-1.5 3.6-1.5 4.4 0 0.8 4.2 4.8 9.2 8.8 5.1 4.1 11.7 10 14.7 13.3 3 3.2 7.2 8.6 9.5 11.9 2.2 3.3 5.8 10 7.9 15 2.1 4.9 4.8 12.8 6 17.5 1.6 6.7 2.1 11.7 2.1 23.5 0 8.8-0.5 17.5-1.2 21-0.8 3.3-2.3 9.1-3.4 13-1.1 3.9-3.8 10.6-6 15-2.2 4.4-6 10.8-8.4 14.2-3.8 5.5-4.2 6.4-2.7 7 1 0.3 3.7 1.9 6 3.5 4.1 2.7 4.4 2.7 6.4 1 1.2-0.9 3.8-4.2 5.9-7.2 2-3 4.9-7.8 6.3-10.5 1.4-2.8 3.7-8.1 5.2-12 1.4-3.9 3.5-10.6 4.5-15 1-4.4 2.4-12.7 3-18.5 0.6-5.8 0.8-13.9 0.5-18-0.3-4.1-1.3-11.3-2.2-16-0.8-4.7-2.8-12.3-4.5-17-1.6-4.7-4.6-11.4-6.5-15-2-3.6-5.4-9.2-7.6-12.5-2.2-3.3-7.5-9.5-11.6-13.8-4.2-4.3-10.9-10.1-14.9-12.8-4.5-3.1-8.2-4.9-10-4.8-1.5 0-3.3 0.3-3.9 0.6zm-138.3 26.9c-2.5 1.4-7.2 4.9-10.4 7.7-3.2 2.9-7.8 7.7-10.1 10.7-2.4 3-6.1 8.9-8.4 13-2.2 4.2-5.2 12-6.7 17.5-2.3 8.5-2.7 12.1-2.7 23.5-0.1 10.7 0.4 15.3 2.2 22.5 1.2 4.9 4 12.6 6.2 17 2.1 4.4 6.3 11.1 9.2 14.9 2.8 3.9 7 8.3 9.2 9.8 2.2 1.6 4.8 2.8 5.8 2.8 0.9 0 2.8-1.2 4.2-2.8 1.4-1.5 2.6-3.8 2.6-5.2-0.1-1.5-1.4-3.8-3.7-6-1.9-1.9-5.5-6.4-7.9-10-2.4-3.6-5.5-9-6.8-12-1.4-3-3.2-9.1-4.1-13.5-0.9-4.4-1.6-12.5-1.6-18 0-6.5 0.6-12.6 1.9-17.5 1-4.1 3.1-10 4.6-13 1.5-3 4.2-7.5 5.8-10 1.7-2.5 5.2-6.7 7.7-9.4 2.5-2.7 7-6.7 10-8.9 3-2.2 5.8-4.5 6.2-5.1 0.4-0.6 0.8-2 0.8-3.1 0-1.1-1.1-3.2-2.5-4.8-1.4-1.5-3.5-2.7-4.7-2.7-1.3 0-4.3 1.2-6.8 2.6zm117.4 0.4c-1 1.2-1.4 2.1-0.9 2 0.6 0 1.5-0.3 2.1-0.8 0.5-0.4 0.1 0.1-0.8 1-1 1-1.8 2.7-1.8 3.8 0 1.3 2.4 3.8 7.2 7.2 4 2.9 9.6 8.2 12.5 11.8 2.9 3.6 6.6 9 8.2 12 1.6 3 4.1 9.5 5.6 14.5 2.1 7.4 2.6 11 2.6 20.5 0 8-0.6 13.8-2 19-1 4.1-3 10-4.3 13-1.3 3-3.9 7.7-5.8 10.5-1.8 2.7-5.3 7.4-7.7 10.2-2.3 2.9-4 5.3-3.6 5.3 0.5 0 1.4 1.3 2 3 0.7 1.6 2.1 3.2 3 3.5 1 0.2 3.4 0.1 5.3-0.3 2.7-0.6 4.9-2.4 9.3-7.7 3.2-3.9 7.6-10.8 9.9-15.5 2.2-4.7 5.2-12.8 6.5-18 1.9-7.4 2.4-12.2 2.5-22 0-8.2-0.5-15-1.6-19.8-0.9-3.9-2.9-10.7-4.6-15-1.6-4.2-4.7-10.3-6.7-13.4-2.1-3.1-6.1-8.3-8.8-11.4-2.8-3.2-8.1-7.9-12-10.6-5.3-3.6-7.9-4.8-10.6-4.8-2.3 0-4.3 0.7-5.5 2zm-101.4 25.9c-2.5 1.6-6.2 4.6-8.2 6.7-2 2.2-5.3 6.6-7.3 9.9-2 3.3-4.5 8.9-5.6 12.5-1.1 3.6-2.2 10.1-2.6 14.5-0.4 5.6-0.1 10.3 1.1 15.7 0.9 4.3 3.1 10.8 4.9 14.5 1.7 3.7 5.5 9.1 8.2 12.1 2.8 2.9 5.9 5.6 7 5.9 1.1 0.3 3 0 4.3-0.6 1.2-0.6 2.9-2.5 3.7-4.1 1.5-2.9 1.4-3.1-2.6-7.8-2.2-2.6-5.7-8.1-7.7-12.2-3.1-6.5-3.7-8.7-4-16.5-0.3-6.2 0.1-10.9 1.2-15 0.9-3.3 3.1-8.4 4.8-11.4 1.8-2.9 6.6-8.3 10.6-12 4-3.6 7.3-7.3 7.3-8.1 0-0.8-0.9-2.7-2.1-4.3-1.5-2-2.9-2.7-5.3-2.7-1.8 0-5.1 1.2-7.7 2.9zm85-0.9c-1.1 1.1-2 3.1-2 4.5 0 1.8 1.7 3.9 6.2 7.7 3.4 2.9 7.8 7.8 9.8 10.8 1.9 3 4.4 8.4 5.4 12 1.4 5 1.7 8.6 1.3 15.5-0.3 5.6-1.3 11.1-2.6 14.5-1.1 3-3.8 8-6 11-2.3 3-4.6 6.5-5.3 7.7-1.1 1.9-1 2.6 1.5 5.7 1.8 2.4 3.5 3.6 5.2 3.6 1.6 0 4-1.5 6.5-4 2.2-2.2 5.4-6.1 7-8.8 1.7-2.6 4.2-8.3 5.7-12.7 2.2-6.7 2.6-9.9 2.7-19.5 0-8.6-0.5-12.9-1.8-17-1-3-3.1-8-4.6-11-1.5-3-5-7.9-7.6-10.9-2.7-3-6.8-6.7-9.2-8.2-2.3-1.6-5.6-2.9-7.2-2.9-1.7 0-3.9 0.9-5 2zm-66.9 23.9c-1.9 1-4.7 3.6-6.3 5.7-1.6 2.2-3.5 6.1-4.3 8.9-0.9 2.7-1.5 7.6-1.5 10.7 0 3.3 0.9 8.1 2 11 1.1 2.9 3.7 7 5.7 9.1 2.2 2.2 4.7 3.8 6.1 3.7 1.2 0 3.3-1.3 4.7-3 1.4-1.6 2.5-3.4 2.5-4 0-0.6-1.4-3-3-5.5-1.7-2.6-3.3-6.5-3.6-9.3-0.4-2.6-0.2-6.2 0.5-8.2 0.6-1.9 2.7-5.3 4.6-7.5 2-2.3 3.5-5.1 3.5-6.5 0-1.4-1-3.5-2.2-4.7-1.3-1.3-3-2.3-3.8-2.3-0.8 0-3 0.9-4.9 1.9zm52.4 0.6c-1.3 1.3-2.4 3.4-2.5 4.7 0 1.3 0.7 3 1.6 3.8 1 0.8 3 3.5 4.6 6 2.1 3.3 2.8 5.7 2.8 9.2 0 2.7-0.5 6-1.1 7.5-0.5 1.6-2.1 4.5-3.5 6.5-1.7 2.7-2.1 4.3-1.5 5.5 0.5 1 1.7 2.6 2.7 3.6 1.2 1.1 3.1 1.7 4.9 1.5 2.1-0.2 3.8-1.5 6.3-4.8 1.8-2.5 4-6.8 4.8-9.5 0.8-2.8 1.4-7.4 1.4-10.3 0-2.8-0.7-7.3-1.6-10-0.9-2.6-3-6.6-4.8-8.9-1.7-2.3-4.3-4.8-5.8-5.7-1.6-0.9-3.5-1.6-4.3-1.6-0.9 0-2.7 1.1-4 2.5z"/><path fill-rule="evenodd" d="m1539 628v331h-462v-331z"/></svg>